<?xml fill="white" version="1.0" encoding="UTF-8"?><svg fill="white" xmlns="http://www.w3.org/2000/svg" viewBox="0 0 434.42 266.24"><defs><style>.cls-1{stroke:#000;stroke-miterlimit:10;stroke-width:.15px;}</style></defs><g id="Isolation_Mode"><path class="cls-1" d="M177.18,102.88c-13.04-9.18-30.87-7.24-41.63,4.52h0c-4.77,5.21-13.46,1.84-13.46-5.23V15.78c0-12.72,14.34-20.14,24.73-12.8l84.36,59.64c14.38,10.17,34.01,8.44,46.39-4.09l5.79-5.86c4.86-4.92,13.25-1.48,13.25,5.44v99.22c0,12.73-14.37,20.15-24.75,12.78l-94.67-67.23Z"/></g><g id="logo"><g><path class="cls-1" d="M25.19,266.16l-18.99-28.63v28.63H.08v-42.46H4.81l19.23,29.12v-29.12h6.19v42.46h-5.03Z"/><path class="cls-1" d="M46.72,266.16v-42.46h25.17v5.7h-18.44v12.13h11.58v5.88h-11.58v13.04h18.8v5.7h-25.54Z"/><path class="cls-1" d="M114.95,266.16h-5.34l-6.25-27.66-6.31,27.66h-5.4l-9.58-42.46h6.73l6.13,28.51,6.31-28.51h5.16l6.37,28.14,6.19-28.14h5.76l-9.77,42.46Z"/><path class="cls-1" d="M183.49,266.16v-18.5h-16.68v18.5h-6.73v-42.46h6.73v17.96h16.68v-17.96h6.73v42.46h-6.73Z"/><path class="cls-1" d="M230.55,266.16h-17.77c-3.46,0-6.49-2.97-6.49-6.49v-29.42c0-3.52,3.03-6.55,6.49-6.55h17.77c3.52,0,6.55,3.03,6.55,6.55v29.42c0,3.52-3.03,6.49-6.55,6.49Zm-.24-36.33h-17.23v30.27h17.23v-30.27Z"/><path class="cls-1" d="M275.25,266.16l-10.92-16.8h-4.67v16.8h-6.49v-42.46h20.81c3.52,0,6.85,3.34,6.85,6.85v11.95c0,3.52-3.28,6.85-6.79,6.85h-2.18l11.04,16.8h-7.64Zm-.91-34.57c0-1.09-.97-2.06-2.06-2.06h-12.62v14.19h12.62c1.09,0,2.06-.97,2.06-2.06v-10.07Z"/><path class="cls-1" d="M296.6,266.16v-42.46h6.73v42.46h-6.73Z"/><path class="cls-1" d="M316.25,266.16v-2.55l19.11-34.27h-17.11v-5.64h25.96v3.03l-18.86,33.79h18.92v5.64h-28.02Z"/><path class="cls-1" d="M381.58,266.16h-17.77c-3.46,0-6.49-2.97-6.49-6.49v-29.42c0-3.52,3.03-6.55,6.49-6.55h17.77c3.52,0,6.55,3.03,6.55,6.55v29.42c0,3.52-3.03,6.49-6.55,6.49Zm-.24-36.33h-17.23v30.27h17.23v-30.27Z"/><path class="cls-1" d="M429.31,266.16l-18.99-28.63v28.63h-6.13v-42.46h4.73l19.23,29.12v-29.12h6.19v42.46h-5.03Z"/></g></g></svg>