<svg id="Laag_2" xmlns="http://www.w3.org/2000/svg" viewBox="0 0 90.57 108.8"><defs><style>.cls-8{stroke-miterlimit:10;stroke:#000;fill:#f5a891}.cls-9{fill:#1d1d1b}</style></defs><g id="Laag_1-2"><circle cx="45.29" cy="63.51" r="44.79" fill="#e6ebf1" stroke="#1d1d1b" stroke-miterlimit="10"/><path d="M64.35 40.37c1.01.89 2.03.45 2.03.45l.68-20.74s-.68-4.91-3.89-7.14c-3.21-2.23-4.56-2.23-4.56-2.23s-1.69-4.46-3.38-5.8-2.87-1.56-7.61-1.34c-4.73.22-10.82.89-10.82.89s-2.2-.89-3.55-2.23L31.9.89s-.51 1.34-.51 4.46v3.12s-2.54 1.11-4.23.22c-1.69-.89-2.03-1.11-2.03-1.11s-.17 4.46.34 6.02-1.35 3.34-1.35 3.34-1.18.45-1.18 3.12v21.85l2.37-.45s-.65-7.98-.19-8.03h.02c.26.1 1.64-1.12 5.39-5.28 1.38 1.55 3.49 3.37 6.44 4.35 6.24 2.08 13.67-.46 19.19-6.28 1 1.36 2.31 2.92 4 4.46 1.23 1.13 2.43 2.03 3.52 2.75l.68.45v6.47z" stroke="#000" fill="#caaa67" stroke-miterlimit="10"/><path class="cls-8" d="M24.63 45.76s-2.57-1.45-2.3-4.24 2.3-4.91 2.3-4.91v9.14z"/><path d="M13.95 95.49c.06-.87.69-8.96 4.36-13.48 1.35-1.66 2.92-2.82 2.92-2.82 1.29-.96 2.81-1.76 4.73-2.38 11.23-3.63 21.54-3.87 21.54-3.87s5.27 0 11.28.73c6.62.8 11.35 1.69 15.75 5.08 1.77 1.36 5.18 4.46 7.34 10.49-2.28 3.23-9.33 12.36-22.38 16.72-11.46 3.83-21.34 1.91-25.74.73-10.19-2.72-16.81-8.33-19.79-11.2z" fill="#333" stroke="#1d1d1b" stroke-miterlimit="10"/><path class="cls-8" d="M40.55 67.42l.36 6.34c.71.56 2.11 1.49 4.13 1.84 4.21.74 7.48-1.63 7.94-1.97v-6.99c1.79-1.06 3.91-2.56 5.92-4.66 4.65-4.85 6.04-10.08 6.51-12.81l1.18-16.04c-1.04-.69-2.1-1.38-3.18-2.07-2.58-1.64-5.13-3.17-7.62-4.59-1.25.61-2.63 1.2-4.14 1.75-5.06 1.83-9.77 2.47-13.47 2.65-1.67-.34-4.2-1.09-6.44-2.91-.51-.42-.96-.85-1.33-1.26-2.44 1.55-4.88 3.11-7.33 4.66l2.37 19.25c1.29 3.37 4 8.72 9.77 13.33 1.82 1.45 3.64 2.6 5.33 3.49z"/><ellipse class="cls-9" cx="52.99" cy="39.19" rx="1.77" ry="1.61"/><ellipse class="cls-9" cx="36.85" cy="39.46" rx="1.77" ry="1.61"/><path d="M37.63 51.35h14.1c-.08.4-.24.96-.57 1.57-1.11 2.04-3.18 2.78-3.89 3.03-3.65 1.3-8.77.12-9.67-2.57-.27-.82-.1-1.6.03-2.03z" fill="#fff" stroke="#1d1d1b" stroke-miterlimit="10"/><path class="cls-9" d="M49 35.97s4.04-2.37 8 .2m-15.39.1c-.64-.43-1.54-.89-2.69-1.11-1.57-.29-2.87.02-4.27.36-1.15.27-2.13.64-2.94 1"/><path d="M41.83 22.64c-.71-1.1-2.08-2.9-4.38-4.42a15.039 15.039 0 00-5.48-2.23m14.89 8.13c-.73-1.92-2-4.62-4.24-7.4a26.792 26.792 0 00-5.77-5.35m13.93 11.45c-.03-1.52-.29-3.97-1.5-6.69-.89-2-2.01-3.48-2.89-4.46" stroke="#a88a55" fill="none" stroke-miterlimit="10"/><path class="cls-8" d="M66.83 43.34s2.59-1.06 2.31-3.1-2.31-3.59-2.31-3.59v6.69z"/><path d="M42.4 46.16c.16.2.64 2.56 1.76 1.31l1.12-1.26" fill="none" stroke="#1d1d1b" stroke-miterlimit="10"/><path fill="#fff" stroke="#1d1d1b" stroke-miterlimit="10" stroke-width=".75" d="M41.88 59.58h4.73"/></g></svg>