<svg fill="#fff" xmlns="http://www.w3.org/2000/svg" viewBox="0 0 122.88 91.43"><path class="st0" d="M98.58 42.86h21.83c1.36 0 2.47 1.11 2.47 2.47v15.42c0 1.36-1.11 2.47-2.47 2.47H98.58c-1.36 0-2.47-1.11-2.47-2.47V45.32c0-1.35 1.11-2.46 2.47-2.46zm-85.19-7.43c7.4 0 13.39 6 13.39 13.39s-6 13.39-13.39 13.39S0 56.22 0 48.83s6-13.4 13.39-13.4zm-1.85 6.66h1.64c.3 0 .55.25.55.55v6.31h5.76c.3 0 .55.25.55.55v1.64c0 .3-.25.55-.55.55H11v-9.04c-.01-.32.24-.56.54-.56zm1.85-3.61c5.72 0 10.35 4.63 10.35 10.35s-4.63 10.35-10.35 10.35S3.04 54.55 3.04 48.83s4.64-10.35 10.35-10.35zm39.12 39.29c3.38 9.96 17.53 10.33 20.71 0 3.75 3.36 14.82 4.05 18.94 6.35 1.3.72 2.48 1.66 3.43 2.9.63.84 1.48 2.39 2.12 4.12h-69.7c.64-1.73 1.49-3.28 2.12-4.12.95-1.25 2.12-2.17 3.43-2.9 4.13-2.31 15.2-2.99 18.95-6.35zM66.7 15.65c.59-.1.66-.09 1.15.03V5.35l-11.2 3.01v12.67c.01.07.01.15.01.22 0 1.8-2.38 3.59-4.71 3.99-2.33.4-4.22-.73-4.22-2.53 0-1.8 1.89-3.59 4.22-3.99.88-.15 1.69-.08 2.37.15V3.61h.1L70.18 0v17.35c.03.14.04.27.04.41 0 1.5-1.58 3-3.52 3.33-1.95.34-3.52-.61-3.52-2.11s1.57-3 3.52-3.33zM49.91 57.13c-.71.03-1.24.18-1.61.42-.21.15-.36.32-.47.54-.11.24-.17.53-.16.86.03.97.54 2.25 1.52 3.72l.01.02 3.2 5.09c1.28 2.04 2.63 4.12 4.31 5.65 1.6 1.47 3.56 2.46 6.14 2.47 2.79.01 4.84-1.02 6.5-2.58 1.73-1.61 3.08-3.83 4.43-6.03l3.6-5.94c.67-1.53.92-2.56.77-3.17-.09-.36-.49-.54-1.16-.57-.15-.01-.29-.01-.43 0-.17 0-.33.01-.51.03-.09.01-.19 0-.28-.02-.32.02-.65 0-.99-.05L76 52.62c-9.16 1.45-16.02-5.36-25.71-1.37l.69 5.93c-.35.01-.73 0-1.07-.05zm28.32-1.15c.89.27 1.46.84 1.69 1.75.26 1-.02 2.43-.88 4.38-.02.03-.03.07-.05.1l-3.65 6.01c-1.41 2.32-2.84 4.64-4.74 6.42-1.98 1.84-4.41 3.07-7.73 3.07-3.1-.01-5.44-1.19-7.36-2.95-1.85-1.7-3.27-3.88-4.62-6.02l-3.2-5.09c-1.17-1.75-1.78-3.34-1.81-4.65-.02-.62.08-1.18.31-1.67.24-.52.61-.94 1.1-1.28.23-.16.49-.29.78-.39-.21-2.76-.29-5.73-.16-8.64.07-.69.2-1.39.39-2.07.82-2.93 2.87-4.26 5.41-5.88 1.4-.89 2.94-1.56 4.53-2.02.29-.08 4.27-9.5 17.05 4.32 1.78 1.93 2.89 3.46 3.14 6.83l-.2 7.78zM16.19 88.15c.53 1.17 0 2.55-1.17 3.07-1.17.53-2.55 0-3.07-1.17-1.3-2.91-2.37-5.94-3.15-9.06a54.76 54.76 0 01-1.51-9.49c-.04-.57-.07-1.23-.1-1.98-.03-.8-.04-1.46-.04-1.98 0-1.28 1.05-2.33 2.33-2.33s2.33 1.05 2.33 2.33c0 .76.01 1.36.02 1.81.02.52.05 1.13.1 1.81.21 2.97.68 5.88 1.39 8.68a49.09 49.09 0 002.87 8.31zM26.49 32c-.9.91-2.38.91-3.29.01-.91-.9-.91-2.38-.01-3.29 2.24-2.24 5.17-4.72 8.29-6.88 2.74-1.89 5.64-3.55 8.37-4.61 1.2-.47 2.55.13 3 1.32.47 1.2-.13 2.55-1.32 3-2.37.92-4.94 2.39-7.41 4.1-2.87 2-5.58 4.29-7.63 6.35zm56.34-10.35c-1.17-.53-1.7-1.9-1.17-3.07s1.9-1.7 3.07-1.17c4.26 1.93 8.25 4.39 11.85 7.29 3.63 2.92 6.88 6.3 9.67 10.05.77 1.03.55 2.48-.49 3.25a2.31 2.31 0 01-3.25-.49 50.681 50.681 0 00-8.85-9.19 49.76 49.76 0 00-10.83-6.67zm29.48 49.68c.09-1.28 1.2-2.25 2.48-2.16 1.28.09 2.25 1.2 2.16 2.48a56.07 56.07 0 01-1.49 9.26c-.77 3.06-1.79 6.02-3.04 8.85a2.324 2.324 0 01-3.07 1.19 2.324 2.324 0 01-1.19-3.07c1.15-2.6 2.09-5.31 2.78-8.1.7-2.72 1.16-5.55 1.37-8.45zM108 48.44l6 4.18a.9.9 0 01.03 1.5l-5.97 4.13a.86.86 0 01-.57.2c-.5 0-.9-.4-.9-.9v-8.38c0-.18.05-.36.16-.51a.89.89 0 011.25-.22z"/></svg>