<svg fill="#fff" xmlns="http://www.w3.org/2000/svg" viewBox="0 0 512 512"><path d="M455.1 97l-293 293c-10.3 11.9-28.3 13.1-40.1 2.8s-13.1-28.3-2.8-40.1l3.1-3.1L414.7 56.9H312.9c-15.7 0-28.4-12.7-28.4-28.4S297.2 0 312.9 0h170.7C499.3 0 512 12.7 512 28.4v170.7c0 15.7-12.7 28.4-28.4 28.4s-28.4-12.7-28.4-28.4V97zm-56.9 215.9c0-15.7 12.7-28.4 28.4-28.4s28.4 12.7 28.4 28.4v142.2c0 31.4-25.5 56.9-56.9 56.9H56.9C25.5 512 0 486.5 0 455.1V113.8c0-31.3 25.6-56.9 56.9-56.9h142.2c15.7 0 28.4 12.7 28.4 28.4s-12.7 28.4-28.4 28.4H56.9V455h341.3V312.9z"/></svg>