<svg fill="#fff" xmlns="http://www.w3.org/2000/svg" viewBox="0 0 434.42 266.24"><defs><style>.cls-1{stroke:#000;stroke-miterlimit:10;stroke-width:.15px}</style></defs><path class="cls-1" d="M177.18 102.88c-13.04-9.18-30.87-7.24-41.63 4.52-4.77 5.21-13.46 1.84-13.46-5.23V15.78c0-12.72 14.34-20.14 24.73-12.8l84.36 59.64c14.38 10.17 34.01 8.44 46.39-4.09l5.79-5.86c4.86-4.92 13.25-1.48 13.25 5.44v99.22c0 12.73-14.37 20.15-24.75 12.78l-94.67-67.23z" id="Isolation_Mode"/><path class="cls-1" d="M25.19 266.16L6.2 237.53v28.63H.08V223.7h4.73l19.23 29.12V223.7h6.19v42.46H25.2zm21.53 0V223.7h25.17v5.7H53.45v12.13h11.58v5.88H53.45v13.04h18.8v5.7H46.71zm68.23 0h-5.34l-6.25-27.66-6.31 27.66h-5.4l-9.58-42.46h6.73l6.13 28.51 6.31-28.51h5.16l6.37 28.14 6.19-28.14h5.76l-9.77 42.46zm68.54 0v-18.5h-16.68v18.5h-6.73V223.7h6.73v17.96h16.68V223.7h6.73v42.46h-6.73zm47.06 0h-17.77c-3.46 0-6.49-2.97-6.49-6.49v-29.42c0-3.52 3.03-6.55 6.49-6.55h17.77c3.52 0 6.55 3.03 6.55 6.55v29.42c0 3.52-3.03 6.49-6.55 6.49zm-.24-36.33h-17.23v30.27h17.23v-30.27zm44.94 36.33l-10.92-16.8h-4.67v16.8h-6.49V223.7h20.81c3.52 0 6.85 3.34 6.85 6.85v11.95c0 3.52-3.28 6.85-6.79 6.85h-2.18l11.04 16.8h-7.64zm-.91-34.57c0-1.09-.97-2.06-2.06-2.06h-12.62v14.19h12.62c1.09 0 2.06-.97 2.06-2.06v-10.07zm22.26 34.57V223.7h6.73v42.46h-6.73zm19.65 0v-2.55l19.11-34.27h-17.11v-5.64h25.96v3.03l-18.86 33.79h18.92v5.64h-28.02zm65.33 0h-17.77c-3.46 0-6.49-2.97-6.49-6.49v-29.42c0-3.52 3.03-6.55 6.49-6.55h17.77c3.52 0 6.55 3.03 6.55 6.55v29.42c0 3.52-3.03 6.49-6.55 6.49zm-.24-36.33h-17.23v30.27h17.23v-30.27zm47.97 36.33l-18.99-28.63v28.63h-6.13V223.7h4.73l19.23 29.12V223.7h6.19v42.46h-5.03z" id="logo"/></svg>